<svg width="129" height="57" viewBox="0 0 129 57" fill="none" xmlns="http://www.w3.org/2000/svg">
  <path d="M31.537 48.274C32.2337 48.274 32.8423 48.4317 33.363 48.747C33.891 49.0623 34.298 49.517 34.584 50.111C34.8773 50.6977 35.024 51.4127 35.024 52.256C35.024 53.0773 34.8737 53.796 34.573 54.412C34.2797 55.028 33.869 55.5083 33.341 55.853C32.813 56.1977 32.208 56.37 31.526 56.37C30.8293 56.37 30.217 56.2123 29.689 55.897C29.1683 55.5817 28.7613 55.127 28.468 54.533C28.182 53.939 28.039 53.224 28.039 52.388C28.039 51.5667 28.1893 50.848 28.49 50.232C28.7907 49.616 29.2013 49.1357 29.722 48.791C30.25 48.4463 30.855 48.274 31.537 48.274ZM31.493 48.472C31.0163 48.472 30.602 48.637 30.25 48.967C29.898 49.297 29.623 49.7517 29.425 50.331C29.2343 50.9103 29.139 51.5813 29.139 52.344C29.139 53.1213 29.2453 53.7997 29.458 54.379C29.678 54.951 29.9713 55.3947 30.338 55.71C30.712 56.018 31.1227 56.172 31.57 56.172C32.0467 56.172 32.461 56.007 32.813 55.677C33.165 55.347 33.4363 54.8923 33.627 54.313C33.825 53.7263 33.924 53.0553 33.924 52.3C33.924 51.5153 33.814 50.837 33.594 50.265C33.3813 49.693 33.0917 49.253 32.725 48.945C32.3583 48.6297 31.9477 48.472 31.493 48.472Z" fill="#978967"></path>
  <path d="M41.4744 48.428C41.4451 48.7067 41.4231 48.978 41.4084 49.242C41.4011 49.4987 41.3974 49.6967 41.3974 49.836C41.3974 50.012 41.4011 50.177 41.4084 50.331C41.4157 50.485 41.4231 50.6207 41.4304 50.738H41.1774C41.1261 50.2247 41.0564 49.8213 40.9684 49.528C40.8804 49.2273 40.7264 49.011 40.5064 48.879C40.2864 48.747 39.9454 48.681 39.4834 48.681H38.7904C38.5411 48.681 38.3504 48.703 38.2184 48.747C38.0937 48.7837 38.0094 48.868 37.9654 49C37.9214 49.1247 37.8994 49.3227 37.8994 49.594V55.05C37.8994 55.314 37.9251 55.512 37.9764 55.644C38.0351 55.776 38.1451 55.864 38.3064 55.908C38.4677 55.952 38.7024 55.9813 39.0104 55.996V56.216C38.8197 56.2013 38.5777 56.194 38.2844 56.194C37.9911 56.1867 37.6941 56.183 37.3934 56.183C37.1074 56.183 36.8397 56.1867 36.5904 56.194C36.3411 56.194 36.1394 56.2013 35.9854 56.216V55.996C36.2347 55.9813 36.4217 55.952 36.5464 55.908C36.6784 55.864 36.7664 55.776 36.8104 55.644C36.8544 55.512 36.8764 55.314 36.8764 55.05V49.594C36.8764 49.3227 36.8544 49.1247 36.8104 49C36.7664 48.868 36.6784 48.78 36.5464 48.736C36.4217 48.6847 36.2347 48.6553 35.9854 48.648V48.428C36.2567 48.4353 36.5427 48.4427 36.8434 48.45C37.1441 48.45 37.4411 48.4537 37.7344 48.461C38.0277 48.461 38.2991 48.461 38.5484 48.461C38.8051 48.461 39.0141 48.461 39.1754 48.461C39.5127 48.461 39.8941 48.461 40.3194 48.461C40.7521 48.4537 41.1371 48.4427 41.4744 48.428ZM39.7694 52.3C39.7694 52.3 39.7694 52.3367 39.7694 52.41C39.7694 52.4833 39.7694 52.52 39.7694 52.52H37.5694C37.5694 52.52 37.5694 52.4833 37.5694 52.41C37.5694 52.3367 37.5694 52.3 37.5694 52.3H39.7694ZM39.9784 50.848C39.9491 51.266 39.9344 51.585 39.9344 51.805C39.9417 52.025 39.9454 52.2267 39.9454 52.41C39.9454 52.5933 39.9491 52.795 39.9564 53.015C39.9637 53.235 39.9821 53.554 40.0114 53.972H39.7584C39.7291 53.7373 39.6924 53.51 39.6484 53.29C39.6117 53.0627 39.5237 52.8793 39.3844 52.74C39.2524 52.5933 39.0251 52.52 38.7024 52.52V52.3C38.9444 52.3 39.1277 52.2523 39.2524 52.157C39.3844 52.0543 39.4797 51.926 39.5384 51.772C39.5971 51.618 39.6374 51.4603 39.6594 51.299C39.6814 51.1303 39.7034 50.98 39.7254 50.848H39.9784Z" fill="#978967"></path>
  <path d="M47.0728 48.307C47.4394 48.307 47.7181 48.351 47.9088 48.439C48.0994 48.5197 48.2681 48.6113 48.4148 48.714C48.5028 48.7653 48.5724 48.8057 48.6238 48.835C48.6824 48.857 48.7374 48.868 48.7888 48.868C48.8621 48.868 48.9134 48.8277 48.9428 48.747C48.9794 48.6663 49.0088 48.5453 49.0308 48.384H49.2838C49.2764 48.5087 49.2654 48.659 49.2508 48.835C49.2434 49.0037 49.2361 49.231 49.2288 49.517C49.2288 49.7957 49.2288 50.166 49.2288 50.628H48.9758C48.9538 50.276 48.8768 49.9387 48.7448 49.616C48.6128 49.2933 48.4184 49.0293 48.1618 48.824C47.9124 48.6187 47.5825 48.516 47.1718 48.516C46.7831 48.516 46.4604 48.6333 46.2038 48.868C45.9544 49.1027 45.8298 49.4107 45.8298 49.792C45.8298 50.122 45.9141 50.4007 46.0828 50.628C46.2514 50.848 46.4751 51.0497 46.7538 51.233C47.0398 51.409 47.3478 51.5997 47.6778 51.805C48.0591 52.0397 48.3964 52.2743 48.6898 52.509C48.9904 52.7363 49.2251 52.9893 49.3938 53.268C49.5698 53.5467 49.6578 53.884 49.6578 54.28C49.6578 54.7493 49.5515 55.138 49.3388 55.446C49.1261 55.754 48.8438 55.985 48.4918 56.139C48.1398 56.293 47.7511 56.37 47.3258 56.37C46.9371 56.37 46.6291 56.326 46.4018 56.238C46.1744 56.15 45.9801 56.0583 45.8188 55.963C45.6574 55.8603 45.5328 55.809 45.4448 55.809C45.3714 55.809 45.3164 55.8493 45.2798 55.93C45.2504 56.0107 45.2248 56.1317 45.2028 56.293H44.9498C44.9645 56.139 44.9718 55.9593 44.9718 55.754C44.9791 55.5413 44.9828 55.2663 44.9828 54.929C44.9901 54.5917 44.9938 54.1663 44.9938 53.653H45.2468C45.2761 54.093 45.3568 54.5037 45.4888 54.885C45.6281 55.2663 45.8371 55.5743 46.1158 55.809C46.4018 56.0363 46.7794 56.15 47.2488 56.15C47.4908 56.15 47.7181 56.1023 47.9308 56.007C48.1508 55.9043 48.3305 55.7467 48.4698 55.534C48.6091 55.314 48.6788 55.0317 48.6788 54.687C48.6788 54.3863 48.6054 54.126 48.4588 53.906C48.3194 53.6787 48.1214 53.4697 47.8648 53.279C47.6081 53.081 47.3074 52.8793 46.9628 52.674C46.6181 52.4613 46.2955 52.245 45.9948 52.025C45.6941 51.805 45.4521 51.552 45.2688 51.266C45.0928 50.9727 45.0048 50.6207 45.0048 50.21C45.0048 49.7773 45.1001 49.4217 45.2908 49.143C45.4888 48.857 45.7455 48.648 46.0608 48.516C46.3761 48.3767 46.7134 48.307 47.0728 48.307Z" fill="#978967"></path>
  <path d="M54.2782 48.274C54.7622 48.274 55.1582 48.3473 55.4662 48.494C55.7815 48.6333 56.0602 48.7983 56.3022 48.989C56.4489 49.099 56.5589 49.1137 56.6322 49.033C56.7129 48.945 56.7679 48.7433 56.7972 48.428H57.0502C57.0355 48.6993 57.0245 49.0293 57.0172 49.418C57.0099 49.8067 57.0062 50.32 57.0062 50.958H56.7532C56.7019 50.6427 56.6542 50.3933 56.6102 50.21C56.5662 50.0193 56.5112 49.858 56.4452 49.726C56.3865 49.594 56.3059 49.462 56.2032 49.33C55.9759 49.0293 55.6899 48.813 55.3452 48.681C55.0005 48.5417 54.6375 48.472 54.2562 48.472C53.8969 48.472 53.5705 48.5637 53.2772 48.747C52.9912 48.923 52.7419 49.1797 52.5292 49.517C52.3239 49.8543 52.1625 50.2613 52.0452 50.738C51.9352 51.2147 51.8802 51.75 51.8802 52.344C51.8802 52.96 51.9425 53.5063 52.0672 53.983C52.1919 54.4523 52.3642 54.8483 52.5842 55.171C52.8115 55.4937 53.0755 55.7393 53.3762 55.908C53.6842 56.0693 54.0142 56.15 54.3662 56.15C54.6962 56.15 55.0409 56.084 55.4002 55.952C55.7595 55.82 56.0419 55.6073 56.2472 55.314C56.4085 55.1013 56.5185 54.8703 56.5772 54.621C56.6432 54.3717 56.7019 54.0233 56.7532 53.576H57.0062C57.0062 54.2433 57.0099 54.7823 57.0172 55.193C57.0245 55.5963 57.0355 55.9373 57.0502 56.216H56.7972C56.7679 55.9007 56.7165 55.7027 56.6432 55.622C56.5772 55.5413 56.4635 55.5523 56.3022 55.655C56.0309 55.8457 55.7412 56.0143 55.4332 56.161C55.1325 56.3003 54.7439 56.37 54.2672 56.37C53.5705 56.37 52.9582 56.2123 52.4302 55.897C51.9095 55.5817 51.5025 55.127 51.2092 54.533C50.9232 53.939 50.7802 53.224 50.7802 52.388C50.7802 51.5667 50.9305 50.848 51.2312 50.232C51.5319 49.616 51.9425 49.1357 52.4632 48.791C52.9912 48.4463 53.5962 48.274 54.2782 48.274Z" fill="#978967"></path>
  <path d="M61.8515 48.274C62.5481 48.274 63.1568 48.4317 63.6775 48.747C64.2055 49.0623 64.6125 49.517 64.8985 50.111C65.1918 50.6977 65.3385 51.4127 65.3385 52.256C65.3385 53.0773 65.1881 53.796 64.8875 54.412C64.5941 55.028 64.1835 55.5083 63.6555 55.853C63.1275 56.1977 62.5225 56.37 61.8405 56.37C61.1438 56.37 60.5315 56.2123 60.0035 55.897C59.4828 55.5817 59.0758 55.127 58.7825 54.533C58.4965 53.939 58.3535 53.224 58.3535 52.388C58.3535 51.5667 58.5038 50.848 58.8045 50.232C59.1051 49.616 59.5158 49.1357 60.0365 48.791C60.5645 48.4463 61.1695 48.274 61.8515 48.274ZM61.8075 48.472C61.3308 48.472 60.9165 48.637 60.5645 48.967C60.2125 49.297 59.9375 49.7517 59.7395 50.331C59.5488 50.9103 59.4535 51.5813 59.4535 52.344C59.4535 53.1213 59.5598 53.7997 59.7725 54.379C59.9925 54.951 60.2858 55.3947 60.6525 55.71C61.0265 56.018 61.4371 56.172 61.8845 56.172C62.3611 56.172 62.7755 56.007 63.1275 55.677C63.4795 55.347 63.7508 54.8923 63.9415 54.313C64.1395 53.7263 64.2385 53.0553 64.2385 52.3C64.2385 51.5153 64.1285 50.837 63.9085 50.265C63.6958 49.693 63.4061 49.253 63.0395 48.945C62.6728 48.6297 62.2621 48.472 61.8075 48.472Z" fill="#978967"></path>
  <path d="M72.4358 48.428C72.4064 48.7067 72.3844 48.978 72.3698 49.242C72.3624 49.4987 72.3588 49.6967 72.3588 49.836C72.3588 50.012 72.3624 50.177 72.3698 50.331C72.3771 50.485 72.3844 50.6207 72.3918 50.738H72.1388C72.0874 50.2247 72.0178 49.8213 71.9298 49.528C71.8418 49.2273 71.6878 49.011 71.4678 48.879C71.2478 48.747 70.9068 48.681 70.4448 48.681H69.8508V54.94C69.8508 55.2333 69.8764 55.4533 69.9278 55.6C69.9864 55.7467 70.0964 55.8457 70.2578 55.897C70.4191 55.9483 70.6538 55.9813 70.9618 55.996V56.216C70.7711 56.2013 70.5291 56.194 70.2358 56.194C69.9424 56.1867 69.6454 56.183 69.3448 56.183C69.0148 56.183 68.7031 56.1867 68.4098 56.194C68.1238 56.194 67.8928 56.2013 67.7168 56.216V55.996C68.0248 55.9813 68.2594 55.9483 68.4208 55.897C68.5821 55.8457 68.6884 55.7467 68.7398 55.6C68.7984 55.4533 68.8278 55.2333 68.8278 54.94V48.681H68.2338C67.7791 48.681 67.4381 48.747 67.2108 48.879C66.9908 49.011 66.8368 49.2273 66.7488 49.528C66.6608 49.8213 66.5911 50.2247 66.5398 50.738H66.2868C66.3014 50.6207 66.3088 50.485 66.3088 50.331C66.3161 50.177 66.3198 50.012 66.3198 49.836C66.3198 49.6967 66.3124 49.4987 66.2978 49.242C66.2904 48.978 66.2721 48.7067 66.2428 48.428C66.5508 48.4353 66.8844 48.4427 67.2438 48.45C67.6104 48.4573 67.9771 48.461 68.3438 48.461C68.7104 48.461 69.0441 48.461 69.3448 48.461C69.6454 48.461 69.9754 48.461 70.3348 48.461C70.7014 48.461 71.0681 48.4573 71.4348 48.45C71.8014 48.4427 72.1351 48.4353 72.4358 48.428Z" fill="#978967"></path>
  <path d="M76.0228 48.428V48.648C75.7735 48.6553 75.5828 48.6847 75.4508 48.736C75.3261 48.78 75.2418 48.868 75.1978 49C75.1538 49.1247 75.1318 49.3227 75.1318 49.594V55.05C75.1318 55.314 75.1538 55.512 75.1978 55.644C75.2418 55.776 75.3261 55.864 75.4508 55.908C75.5828 55.9447 75.7735 55.963 76.0228 55.963H76.8258C77.1705 55.963 77.4491 55.9263 77.6618 55.853C77.8818 55.7797 78.0541 55.666 78.1788 55.512C78.3108 55.3507 78.4098 55.138 78.4758 54.874C78.5418 54.61 78.5931 54.2873 78.6298 53.906H78.8828C78.8608 54.1333 78.8498 54.434 78.8498 54.808C78.8498 54.9473 78.8535 55.149 78.8608 55.413C78.8755 55.6697 78.8975 55.9373 78.9268 56.216C78.5528 56.2013 78.1311 56.194 77.6618 56.194C77.1925 56.1867 76.7745 56.183 76.4078 56.183C76.2465 56.183 76.0375 56.183 75.7808 56.183C75.5315 56.183 75.2601 56.1867 74.9668 56.194C74.6735 56.194 74.3765 56.1977 74.0758 56.205C73.7751 56.205 73.4891 56.2087 73.2178 56.216V55.996C73.4671 55.9813 73.6541 55.952 73.7788 55.908C73.9108 55.864 73.9988 55.776 74.0428 55.644C74.0868 55.512 74.1088 55.314 74.1088 55.05V49.594C74.1088 49.3227 74.0868 49.1247 74.0428 49C73.9988 48.868 73.9108 48.78 73.7788 48.736C73.6541 48.6847 73.4671 48.6553 73.2178 48.648V48.428C73.3718 48.4353 73.5735 48.4427 73.8228 48.45C74.0721 48.4573 74.3398 48.461 74.6258 48.461C74.8825 48.461 75.1355 48.4573 75.3848 48.45C75.6415 48.4427 75.8541 48.4353 76.0228 48.428Z" fill="#978967"></path>
  <path d="M82.7756 48.373L85.4596 55.292C85.5696 55.5707 85.6943 55.7577 85.8336 55.853C85.9729 55.941 86.1013 55.9887 86.2186 55.996V56.216C86.0719 56.2013 85.8923 56.194 85.6796 56.194C85.4669 56.1867 85.2543 56.183 85.0416 56.183C84.7556 56.183 84.4879 56.1867 84.2386 56.194C83.9893 56.194 83.7876 56.2013 83.6336 56.216V55.996C84.0076 55.9813 84.2459 55.919 84.3486 55.809C84.4513 55.6917 84.4293 55.446 84.2826 55.072L82.2366 49.605L82.4126 49.462L80.4986 54.434C80.3813 54.7273 80.3116 54.9767 80.2896 55.182C80.2676 55.38 80.2859 55.5377 80.3446 55.655C80.4106 55.7723 80.5169 55.8567 80.6636 55.908C80.8176 55.9593 81.0083 55.9887 81.2356 55.996V56.216C81.0303 56.2013 80.8139 56.194 80.5866 56.194C80.3666 56.1867 80.1613 56.183 79.9706 56.183C79.7873 56.183 79.6296 56.1867 79.4976 56.194C79.3729 56.194 79.2556 56.2013 79.1456 56.216V55.996C79.2923 55.9593 79.4426 55.875 79.5966 55.743C79.7506 55.6037 79.8899 55.369 80.0146 55.039L82.5996 48.373C82.6289 48.373 82.6583 48.373 82.6876 48.373C82.7169 48.373 82.7463 48.373 82.7756 48.373ZM84.1176 53.048V53.268H80.8396L80.9496 53.048H84.1176Z" fill="#978967"></path>
  <path d="M93.3065 48.428V48.648C93.0571 48.6553 92.8665 48.692 92.7345 48.758C92.6098 48.824 92.5255 48.9303 92.4815 49.077C92.4375 49.2237 92.4155 49.4327 92.4155 49.704V56.271C92.3715 56.271 92.3275 56.271 92.2835 56.271C92.2468 56.271 92.2065 56.271 92.1625 56.271L87.5425 49.132V54.94C87.5425 55.204 87.5645 55.413 87.6085 55.567C87.6598 55.7137 87.7551 55.82 87.8945 55.886C88.0411 55.9447 88.2575 55.9813 88.5435 55.996V56.216C88.4115 56.2013 88.2391 56.194 88.0265 56.194C87.8138 56.1867 87.6121 56.183 87.4215 56.183C87.2381 56.183 87.0511 56.1867 86.8605 56.194C86.6771 56.194 86.5231 56.2013 86.3985 56.216V55.996C86.6478 55.9813 86.8348 55.9447 86.9595 55.886C87.0915 55.82 87.1795 55.7137 87.2235 55.567C87.2675 55.413 87.2895 55.204 87.2895 54.94V49.594C87.2895 49.3227 87.2675 49.1247 87.2235 49C87.1795 48.868 87.0915 48.78 86.9595 48.736C86.8348 48.6847 86.6478 48.6553 86.3985 48.648V48.428C86.5231 48.4353 86.6771 48.4427 86.8605 48.45C87.0511 48.4573 87.2381 48.461 87.4215 48.461C87.5828 48.461 87.7368 48.4573 87.8835 48.45C88.0301 48.4427 88.1621 48.4353 88.2795 48.428L92.1625 54.412V49.704C92.1625 49.4327 92.1368 49.2237 92.0855 49.077C92.0415 48.9303 91.9461 48.824 91.7995 48.758C91.6601 48.692 91.4475 48.6553 91.1615 48.648V48.428C91.2935 48.4353 91.4658 48.4427 91.6785 48.45C91.8985 48.4573 92.1001 48.461 92.2835 48.461C92.4741 48.461 92.6611 48.4573 92.8445 48.45C93.0351 48.4427 93.1891 48.4353 93.3065 48.428Z" fill="#978967"></path>
  <path d="M97.1681 48.428C98.4807 48.428 99.4561 48.758 100.094 49.418C100.732 50.0707 101.051 51.0093 101.051 52.234C101.051 53.0333 100.893 53.7337 100.578 54.335C100.27 54.929 99.8191 55.391 99.2251 55.721C98.6311 56.051 97.9124 56.216 97.0691 56.216C96.9591 56.216 96.8124 56.2123 96.6291 56.205C96.4457 56.1977 96.2551 56.194 96.0571 56.194C95.8664 56.1867 95.6904 56.183 95.5291 56.183C95.2724 56.183 95.0194 56.1867 94.7701 56.194C94.5207 56.194 94.3191 56.2013 94.1651 56.216V55.996C94.4144 55.9813 94.6014 55.952 94.7261 55.908C94.8581 55.864 94.9461 55.776 94.9901 55.644C95.0341 55.512 95.0561 55.314 95.0561 55.05V49.594C95.0561 49.3227 95.0341 49.1247 94.9901 49C94.9461 48.868 94.8581 48.78 94.7261 48.736C94.6014 48.6847 94.4144 48.6553 94.1651 48.648V48.428C94.3191 48.4353 94.5207 48.4463 94.7701 48.461C95.0194 48.4683 95.2651 48.4683 95.5071 48.461C95.7637 48.4537 96.0534 48.4463 96.3761 48.439C96.6987 48.4317 96.9627 48.428 97.1681 48.428ZM96.8931 48.626C96.5557 48.626 96.3357 48.6883 96.2331 48.813C96.1304 48.9377 96.0791 49.1907 96.0791 49.572V55.072C96.0791 55.4533 96.1304 55.7063 96.2331 55.831C96.3431 55.9557 96.5667 56.018 96.9041 56.018C97.7034 56.018 98.3231 55.875 98.7631 55.589C99.2031 55.2957 99.5111 54.8703 99.6871 54.313C99.8631 53.7557 99.9511 53.0773 99.9511 52.278C99.9511 51.4567 99.8521 50.7783 99.6541 50.243C99.4634 49.7003 99.1444 49.297 98.6971 49.033C98.2571 48.7617 97.6557 48.626 96.8931 48.626Z" fill="#978967"></path>
  <path d="M53.326 0.307001C53.302 0.517001 53.284 0.721001 53.272 0.919001C53.266 1.117 53.263 1.267 53.263 1.369C53.263 1.477 53.266 1.582 53.272 1.684C53.278 1.78 53.284 1.861 53.29 1.927H53.083C53.047 1.573 52.996 1.294 52.93 1.09C52.864 0.880001 52.75 0.733001 52.588 0.649001C52.432 0.559001 52.195 0.514001 51.877 0.514001H51.13C50.926 0.514001 50.77 0.532001 50.662 0.568001C50.56 0.598001 50.491 0.667001 50.455 0.775001C50.419 0.877001 50.401 1.039 50.401 1.261V5.725C50.401 5.941 50.419 6.103 50.455 6.211C50.491 6.319 50.56 6.391 50.662 6.427C50.77 6.457 50.926 6.472 51.13 6.472H51.787C52.165 6.472 52.45 6.421 52.642 6.319C52.84 6.217 52.981 6.052 53.065 5.824C53.155 5.59 53.221 5.275 53.263 4.879H53.47C53.452 5.041 53.443 5.257 53.443 5.527C53.443 5.641 53.446 5.806 53.452 6.022C53.464 6.232 53.482 6.451 53.506 6.679C53.2 6.667 52.855 6.661 52.471 6.661C52.087 6.655 51.745 6.652 51.445 6.652C51.313 6.652 51.142 6.652 50.932 6.652C50.728 6.652 50.506 6.655 50.266 6.661C50.026 6.661 49.783 6.664 49.537 6.67C49.291 6.67 49.057 6.673 48.835 6.679V6.499C49.039 6.487 49.192 6.463 49.294 6.427C49.402 6.391 49.474 6.319 49.51 6.211C49.546 6.103 49.564 5.941 49.564 5.725V1.261C49.564 1.039 49.546 0.877001 49.51 0.775001C49.474 0.667001 49.402 0.595001 49.294 0.559001C49.192 0.517001 49.039 0.493001 48.835 0.487001V0.307001C49.057 0.313001 49.291 0.319001 49.537 0.325001C49.783 0.325001 50.026 0.328001 50.266 0.334001C50.506 0.334001 50.728 0.334001 50.932 0.334001C51.142 0.334001 51.313 0.334001 51.445 0.334001C51.721 0.334001 52.033 0.334001 52.381 0.334001C52.735 0.328001 53.05 0.319001 53.326 0.307001ZM51.778 3.385C51.778 3.385 51.778 3.415 51.778 3.475C51.778 3.535 51.778 3.565 51.778 3.565H50.131C50.131 3.565 50.131 3.535 50.131 3.475C50.131 3.415 50.131 3.385 50.131 3.385H51.778ZM52.039 2.197C52.015 2.539 52.003 2.8 52.003 2.98C52.009 3.16 52.012 3.325 52.012 3.475C52.012 3.625 52.015 3.79 52.021 3.97C52.027 4.15 52.042 4.411 52.066 4.753H51.859C51.835 4.561 51.805 4.375 51.769 4.195C51.739 4.009 51.667 3.859 51.553 3.745C51.445 3.625 51.259 3.565 50.995 3.565V3.385C51.193 3.385 51.343 3.346 51.445 3.268C51.553 3.184 51.631 3.079 51.679 2.953C51.727 2.827 51.76 2.698 51.778 2.566C51.796 2.428 51.814 2.305 51.832 2.197H52.039Z" fill="#978967"></path>
  <path d="M55.8134 1.918C56.0534 1.918 56.2574 1.957 56.4254 2.035C56.5934 2.113 56.7164 2.185 56.7944 2.251C56.9924 2.413 57.1124 2.305 57.1544 1.927H57.3614C57.3494 2.095 57.3404 2.296 57.3344 2.53C57.3284 2.758 57.3254 3.067 57.3254 3.457H57.1184C57.0824 3.235 57.0194 3.019 56.9294 2.809C56.8454 2.599 56.7194 2.428 56.5514 2.296C56.3834 2.158 56.1644 2.089 55.8944 2.089C55.6844 2.089 55.5074 2.149 55.3634 2.269C55.2254 2.383 55.1564 2.554 55.1564 2.782C55.1564 2.962 55.2104 3.118 55.3184 3.25C55.4264 3.376 55.5674 3.496 55.7414 3.61C55.9154 3.718 56.1044 3.838 56.3084 3.97C56.5364 4.114 56.7434 4.261 56.9294 4.411C57.1154 4.561 57.2624 4.726 57.3704 4.906C57.4844 5.086 57.5414 5.299 57.5414 5.545C57.5414 5.821 57.4694 6.052 57.3254 6.238C57.1814 6.424 56.9924 6.565 56.7584 6.661C56.5304 6.757 56.2784 6.805 56.0024 6.805C55.8704 6.805 55.7444 6.793 55.6244 6.769C55.5104 6.751 55.3994 6.721 55.2914 6.679C55.2314 6.649 55.1684 6.613 55.1024 6.571C55.0424 6.529 54.9824 6.484 54.9224 6.436C54.8624 6.388 54.8084 6.391 54.7604 6.445C54.7124 6.493 54.6764 6.592 54.6524 6.742H54.4454C54.4574 6.55 54.4664 6.316 54.4724 6.04C54.4784 5.764 54.4814 5.398 54.4814 4.942H54.6884C54.7304 5.278 54.7904 5.572 54.8684 5.824C54.9464 6.076 55.0694 6.274 55.2374 6.418C55.4054 6.556 55.6394 6.625 55.9394 6.625C56.0594 6.625 56.1794 6.598 56.2994 6.544C56.4254 6.49 56.5304 6.4 56.6144 6.274C56.6984 6.148 56.7404 5.98 56.7404 5.77C56.7404 5.506 56.6444 5.29 56.4524 5.122C56.2604 4.954 56.0174 4.777 55.7234 4.591C55.5074 4.453 55.3034 4.315 55.1114 4.177C54.9254 4.039 54.7724 3.883 54.6524 3.709C54.5384 3.535 54.4814 3.325 54.4814 3.079C54.4814 2.809 54.5414 2.59 54.6614 2.422C54.7874 2.248 54.9524 2.122 55.1564 2.044C55.3604 1.96 55.5794 1.918 55.8134 1.918Z" fill="#978967"></path>
  <path d="M59.6768 0.550001V2.053H61.0088V2.233H59.6768V5.716C59.6768 5.998 59.7278 6.196 59.8298 6.31C59.9318 6.424 60.0728 6.481 60.2528 6.481C60.4328 6.481 60.5888 6.409 60.7208 6.265C60.8528 6.115 60.9668 5.866 61.0628 5.518L61.2428 5.563C61.1828 5.911 61.0628 6.205 60.8828 6.445C60.7088 6.685 60.4388 6.805 60.0728 6.805C59.8688 6.805 59.7008 6.778 59.5688 6.724C59.4368 6.676 59.3198 6.604 59.2178 6.508C59.0858 6.37 58.9928 6.205 58.9388 6.013C58.8908 5.821 58.8668 5.566 58.8668 5.248V2.233H58.0028V2.053H58.8668V0.676001C59.0168 0.670001 59.1608 0.658001 59.2988 0.640001C59.4368 0.622001 59.5628 0.592001 59.6768 0.550001Z" fill="#978967"></path>
  <path d="M65.5172 1.945V5.752C65.5172 6.04 65.5832 6.235 65.7152 6.337C65.8472 6.439 66.0692 6.49 66.3812 6.49V6.679C66.2612 6.673 66.0842 6.667 65.8502 6.661C65.6222 6.649 65.3852 6.643 65.1392 6.643C64.8632 6.643 64.5962 6.649 64.3382 6.661C64.0862 6.667 63.8912 6.673 63.7532 6.679V6.49C64.0532 6.49 64.2872 6.442 64.4552 6.346C64.6232 6.244 64.7072 6.046 64.7072 5.752V3.574C64.7072 3.286 64.6772 3.073 64.6172 2.935C64.5572 2.797 64.4492 2.707 64.2932 2.665C64.1432 2.623 63.9332 2.602 63.6632 2.602V2.404C64.0952 2.392 64.4552 2.353 64.7432 2.287C65.0312 2.221 65.2892 2.107 65.5172 1.945Z" fill="#978967"></path>
  <path d="M68.9833 0.181001C69.2533 0.181001 69.4993 0.229001 69.7213 0.325001C69.9493 0.415001 70.1293 0.553001 70.2613 0.739001C70.3993 0.919001 70.4683 1.144 70.4683 1.414C70.4683 1.78 70.3483 2.104 70.1083 2.386C69.8683 2.668 69.5593 2.929 69.1813 3.169L69.1093 3.043C69.2653 2.911 69.3883 2.767 69.4783 2.611C69.5743 2.455 69.6433 2.287 69.6853 2.107C69.7273 1.921 69.7483 1.729 69.7483 1.531C69.7483 1.177 69.6733 0.892001 69.5233 0.676001C69.3793 0.454001 69.1663 0.343001 68.8843 0.343001C68.6443 0.343001 68.4433 0.430001 68.2813 0.604001C68.1193 0.772001 68.0383 1.006 68.0383 1.306C68.0383 1.588 68.1043 1.837 68.2363 2.053C68.3683 2.263 68.5393 2.455 68.7493 2.629C68.9593 2.803 69.1813 2.974 69.4153 3.142C69.6493 3.304 69.8713 3.478 70.0813 3.664C70.2913 3.844 70.4623 4.051 70.5943 4.285C70.7263 4.513 70.7923 4.78 70.7923 5.086C70.7923 5.428 70.7083 5.728 70.5403 5.986C70.3723 6.244 70.1413 6.445 69.8473 6.589C69.5593 6.733 69.2263 6.805 68.8483 6.805C68.5303 6.805 68.2333 6.751 67.9573 6.643C67.6813 6.529 67.4593 6.361 67.2913 6.139C67.1233 5.911 67.0393 5.629 67.0393 5.293C67.0393 4.981 67.1083 4.702 67.2463 4.456C67.3903 4.204 67.5793 3.985 67.8133 3.799C68.0533 3.607 68.3173 3.445 68.6053 3.313L68.6773 3.439C68.3653 3.649 68.1463 3.904 68.0203 4.204C67.8943 4.498 67.8313 4.816 67.8313 5.158C67.8313 5.416 67.8643 5.659 67.9303 5.887C68.0023 6.109 68.1163 6.292 68.2723 6.436C68.4343 6.574 68.6443 6.643 68.9023 6.643C69.2023 6.643 69.4633 6.544 69.6853 6.346C69.9133 6.142 70.0273 5.848 70.0273 5.464C70.0273 5.17 69.9613 4.912 69.8293 4.69C69.7033 4.468 69.5383 4.264 69.3343 4.078C69.1303 3.886 68.9113 3.703 68.6773 3.529C68.4493 3.355 68.2333 3.175 68.0293 2.989C67.8253 2.803 67.6573 2.596 67.5253 2.368C67.3993 2.14 67.3363 1.879 67.3363 1.585C67.3363 1.303 67.4083 1.057 67.5523 0.847001C67.7023 0.637001 67.9003 0.475001 68.1463 0.361001C68.3983 0.241001 68.6773 0.181001 68.9833 0.181001Z" fill="#978967"></path>
  <path d="M74.7931 0.172001L74.8291 0.352001C74.6311 0.418001 74.4271 0.502001 74.2171 0.604001C74.0131 0.706001 73.8151 0.847001 73.6231 1.027C73.4311 1.207 73.2601 1.438 73.1101 1.72C72.9601 1.996 72.8401 2.341 72.7501 2.755C72.6601 3.163 72.6151 3.655 72.6151 4.231C72.6151 4.861 72.6691 5.35 72.7771 5.698C72.8851 6.046 73.0201 6.289 73.1821 6.427C73.3441 6.559 73.5061 6.625 73.6681 6.625C73.8481 6.625 74.0131 6.565 74.1631 6.445C74.3191 6.319 74.4451 6.118 74.5411 5.842C74.6371 5.566 74.6851 5.206 74.6851 4.762C74.6851 4.33 74.6401 3.985 74.5501 3.727C74.4661 3.469 74.3491 3.283 74.1991 3.169C74.0551 3.055 73.8931 2.998 73.7131 2.998C73.5811 2.998 73.4371 3.028 73.2811 3.088C73.1251 3.148 72.9811 3.25 72.8491 3.394C72.7171 3.532 72.6211 3.73 72.5611 3.988L72.4711 4.042C72.5131 3.706 72.6181 3.445 72.7861 3.259C72.9541 3.067 73.1431 2.932 73.3531 2.854C73.5691 2.776 73.7641 2.737 73.9381 2.737C74.2201 2.737 74.4841 2.815 74.7301 2.971C74.9761 3.121 75.1741 3.343 75.3241 3.637C75.4801 3.925 75.5581 4.279 75.5581 4.699C75.5581 5.149 75.4681 5.533 75.2881 5.851C75.1081 6.163 74.8681 6.4 74.5681 6.562C74.2681 6.724 73.9381 6.805 73.5781 6.805C73.0081 6.805 72.5581 6.583 72.2281 6.139C71.9041 5.689 71.7421 5.059 71.7421 4.249C71.7421 3.703 71.8081 3.22 71.9401 2.8C72.0721 2.38 72.2461 2.017 72.4621 1.711C72.6841 1.399 72.9271 1.138 73.1911 0.928001C73.4611 0.718001 73.7341 0.553001 74.0101 0.433001C74.2921 0.307001 74.5531 0.220001 74.7931 0.172001Z" fill="#978967"></path>
  <path d="M78.3085 0.181001C78.5785 0.181001 78.8245 0.229001 79.0465 0.325001C79.2745 0.415001 79.4545 0.553001 79.5865 0.739001C79.7245 0.919001 79.7935 1.144 79.7935 1.414C79.7935 1.78 79.6735 2.104 79.4335 2.386C79.1935 2.668 78.8845 2.929 78.5065 3.169L78.4345 3.043C78.5905 2.911 78.7135 2.767 78.8035 2.611C78.8995 2.455 78.9685 2.287 79.0105 2.107C79.0525 1.921 79.0735 1.729 79.0735 1.531C79.0735 1.177 78.9985 0.892001 78.8485 0.676001C78.7045 0.454001 78.4915 0.343001 78.2095 0.343001C77.9695 0.343001 77.7685 0.430001 77.6065 0.604001C77.4445 0.772001 77.3635 1.006 77.3635 1.306C77.3635 1.588 77.4295 1.837 77.5615 2.053C77.6935 2.263 77.8645 2.455 78.0745 2.629C78.2845 2.803 78.5065 2.974 78.7405 3.142C78.9745 3.304 79.1965 3.478 79.4065 3.664C79.6165 3.844 79.7875 4.051 79.9195 4.285C80.0515 4.513 80.1175 4.78 80.1175 5.086C80.1175 5.428 80.0335 5.728 79.8655 5.986C79.6975 6.244 79.4665 6.445 79.1725 6.589C78.8845 6.733 78.5515 6.805 78.1735 6.805C77.8555 6.805 77.5585 6.751 77.2825 6.643C77.0065 6.529 76.7845 6.361 76.6165 6.139C76.4485 5.911 76.3645 5.629 76.3645 5.293C76.3645 4.981 76.4335 4.702 76.5715 4.456C76.7155 4.204 76.9045 3.985 77.1385 3.799C77.3785 3.607 77.6425 3.445 77.9305 3.313L78.0025 3.439C77.6905 3.649 77.4715 3.904 77.3455 4.204C77.2195 4.498 77.1565 4.816 77.1565 5.158C77.1565 5.416 77.1895 5.659 77.2555 5.887C77.3275 6.109 77.4415 6.292 77.5975 6.436C77.7595 6.574 77.9695 6.643 78.2275 6.643C78.5275 6.643 78.7885 6.544 79.0105 6.346C79.2385 6.142 79.3525 5.848 79.3525 5.464C79.3525 5.17 79.2865 4.912 79.1545 4.69C79.0285 4.468 78.8635 4.264 78.6595 4.078C78.4555 3.886 78.2365 3.703 78.0025 3.529C77.7745 3.355 77.5585 3.175 77.3545 2.989C77.1505 2.803 76.9825 2.596 76.8505 2.368C76.7245 2.14 76.6615 1.879 76.6615 1.585C76.6615 1.303 76.7335 1.057 76.8775 0.847001C77.0275 0.637001 77.2255 0.475001 77.4715 0.361001C77.7235 0.241001 78.0025 0.181001 78.3085 0.181001Z" fill="#978967"></path>
  <path d="M35.5125 4.21482C35.5061 3.86113 35.5636 3.57668 35.6851 3.36148C35.8065 3.14629 35.9642 2.98968 36.1581 2.89167C36.3541 2.79366 36.5608 2.74465 36.7781 2.74465C36.9954 2.74465 37.1936 2.79259 37.3726 2.88847C37.5537 2.98222 37.7603 3.13031 37.9926 3.33272C38.1503 3.46908 38.276 3.56496 38.3697 3.62036C38.4656 3.67576 38.57 3.70346 38.6829 3.70346C38.8662 3.70346 39.0111 3.63741 39.1176 3.50531C39.2241 3.37107 39.2753 3.17718 39.271 2.92363H39.9613C39.9677 3.27732 39.9102 3.56177 39.7888 3.77697C39.6694 3.99217 39.5118 4.14877 39.3157 4.24678C39.1197 4.34479 38.913 4.3938 38.6957 4.3938C38.4784 4.3938 38.2802 4.34692 38.1013 4.25317C37.9223 4.15729 37.7156 4.00815 37.4812 3.80573C37.3257 3.66937 37.2 3.57349 37.1041 3.51809C37.0082 3.46269 36.9038 3.43499 36.7909 3.43499C36.6183 3.43499 36.4755 3.49572 36.3626 3.61717C36.2518 3.73648 36.1986 3.9357 36.2028 4.21482H35.5125Z" fill="#978967"></path>
  <path d="M94.9905 3.25681C94.9841 2.90312 95.0416 2.61868 95.1631 2.40348C95.2845 2.18828 95.4422 2.03167 95.6361 1.93366C95.8321 1.83565 96.0388 1.78664 96.2561 1.78664C96.4734 1.78664 96.6716 1.83458 96.8506 1.93047C97.0317 2.02422 97.2383 2.1723 97.4706 2.37471C97.6283 2.51108 97.754 2.60696 97.8477 2.66235C97.9436 2.71775 98.048 2.74545 98.1609 2.74545C98.3442 2.74545 98.489 2.6794 98.5956 2.5473C98.7021 2.41306 98.7533 2.21917 98.749 1.96562H99.4393C99.4457 2.31931 99.3882 2.60376 99.2667 2.81896C99.1474 3.03416 98.9898 3.19076 98.7937 3.28877C98.5977 3.38679 98.391 3.43579 98.1737 3.43579C97.9564 3.43579 97.7582 3.38892 97.5792 3.29517C97.4003 3.19929 97.1936 3.05014 96.9592 2.84772C96.8037 2.71136 96.678 2.61548 96.5821 2.56008C96.4862 2.50468 96.3818 2.47699 96.2689 2.47699C96.0963 2.47699 95.9535 2.53771 95.8406 2.65916C95.7298 2.77848 95.6765 2.9777 95.6808 3.25681H94.9905Z" fill="#978967"></path>
  <path d="M0.682242 19.9891C3.13749 19.3902 5.61018 18.8469 8.07383 18.2769C11.8995 17.3917 16.6449 16.3789 19.9783 18.7163C20.5441 19.1059 21.0269 19.604 21.3985 20.1817C22.7392 22.2719 22.0239 24.9654 20.435 26.8883C19.4966 28.0249 18.3057 29.1543 16.6132 29.0843C16.2968 29.073 15.9817 29.0369 15.671 28.9761L15.5734 28.7289C16.7389 28.6642 17.9079 28.7495 19.0517 28.9826C21.2277 29.3849 23.6782 30.1828 24.684 32.095C24.8766 32.4497 25.0341 32.8224 25.1543 33.2077C25.2681 33.5957 25.3393 33.9951 25.3667 34.3985C25.4213 35.2214 25.3085 36.0468 25.0351 36.8248C24.7548 37.6312 24.311 38.371 23.7314 38.9979C22.1672 40.8349 19.4089 41.5266 17.0631 42.0138C15.4111 42.3552 13.7503 42.6485 12.0983 42.9899C10.8666 43.2454 9.63576 43.5109 8.41313 43.8044C7.85631 43.938 6.68948 44.4285 6.38349 44.0937C6.03046 43.7026 6.64464 43.1375 6.74342 42.743C7.00351 41.7809 7.04475 40.7727 6.86411 39.7926L3.40009 23.6584C3.26265 22.6769 2.77486 21.7781 2.02672 21.128C1.71126 20.8793 1.34858 20.6832 1.01779 20.4506C0.897325 20.3679 0.782668 20.277 0.674626 20.1786C0.617505 20.1282 0.59246 20.0423 0.682242 19.9891ZM8.00556 22.6197L11.2124 38.9407C11.3188 39.4111 11.3684 40.2061 11.9257 40.4872C12.7792 40.7507 13.6901 40.7651 14.5514 40.5288C16.0768 40.4099 17.5474 39.9075 18.8267 39.0682C20.5087 37.8296 20.4531 35.9092 20.0367 34.2314C19.8876 33.5381 19.611 32.8784 19.221 32.286C18.9208 31.8664 18.5349 31.5153 18.0889 31.2559C17.6428 30.9966 17.1468 30.8349 16.6336 30.7815C15.2729 30.5551 13.8819 30.5844 12.5319 30.8679L8.42428 31.6081C8.15175 31.0483 8.05782 30.4183 8.15522 29.8034L11.9952 29.0396C13.5552 28.7507 15.4221 28.1428 16.2622 26.7987C16.552 26.2998 16.7304 25.7441 16.7851 25.1697C16.8647 24.3572 16.8303 23.5374 16.6829 22.7344C16.6446 22.1396 16.4677 21.5621 16.1665 21.0479C15.8653 20.5337 15.4481 20.097 14.9481 19.7726C13.3567 19.1014 11.584 18.9925 9.92233 19.4638C9.26654 19.5226 8.65107 19.8057 8.17967 20.2653C7.81199 20.996 7.74937 21.8428 8.00556 22.6197V22.6197Z" fill="#978967"></path>
  <path d="M28.8061 23.393C31.0495 21.9288 33.6406 21.0847 36.3159 20.9464C37.8248 20.7414 39.3605 20.9933 40.7249 21.6695C42.6447 22.7415 42.9588 24.9426 43.1836 26.6985L44.0707 35.6441C44.0944 35.9038 44.1348 36.1616 44.1917 36.4161C44.2632 36.6832 44.2933 36.8709 44.461 36.8968C44.6762 36.922 44.8935 36.9249 45.1094 36.9056L46.236 36.8299L46.9792 38.0354C46.9792 38.0354 45.9725 38.1108 45.7426 38.111L43.4106 38.2452C42.4339 38.3677 41.4453 38.3586 40.4711 38.2183C39.4924 37.8505 39.6134 36.7642 39.5122 35.9736C39.2892 36.4493 39.0076 36.8952 38.6739 37.3009C38.1393 38.0449 37.454 38.6679 36.6626 39.1293C35.5815 39.6551 34.4169 39.9881 33.2213 40.1133C31.2891 40.3778 29.3578 40.0907 28.1822 38.8075C26.4392 36.9032 26.9309 34.0897 28.8529 32.2325C29.7809 31.4388 30.8319 30.8016 31.9648 30.3459C32.5044 30.0953 33.0563 29.8623 33.6075 29.6314L36.7575 28.3016L38.4146 27.5419C38.4365 27.2246 38.4584 26.9072 38.4621 26.5901C38.4691 26.3184 38.4595 26.0466 38.4335 25.7761C38.3919 24.9889 38.0657 24.2436 37.5156 23.679C36.9656 23.1144 36.2291 22.7688 35.4433 22.7066C34.9892 22.6978 34.5363 22.7558 34.0991 22.8787C33.5446 23.0596 31.7933 23.6427 31.606 24.2273C31.5413 24.4312 31.7586 24.4981 31.884 24.5799C32.2136 24.8129 32.4592 25.146 32.5843 25.5297C32.7747 26.09 32.7536 26.7005 32.525 27.2462C32.2964 27.7919 31.8762 28.2352 31.3434 28.4926C30.8115 28.7443 30.2303 28.8745 29.6419 28.8738C29.1924 28.922 28.7388 28.8337 28.3403 28.6203C27.9417 28.4069 27.6167 28.0784 27.4077 27.6777C27.1916 27.1853 27.1042 26.6461 27.1536 26.1107C27.2031 25.5752 27.3877 25.0612 27.6903 24.6167C27.9793 24.1402 28.3583 23.7246 28.8061 23.393V23.393ZM39.1941 33.9696L38.9018 29.4971C37.3816 29.9628 35.8906 30.519 34.4368 31.1627C33.8455 31.4389 33.3262 31.8481 32.9191 32.3582C32.6008 32.7607 32.4044 33.2459 32.353 33.7565C32.246 34.9519 32.3847 36.9809 34.2838 37.1663C34.5332 37.183 34.7837 37.1696 35.0298 37.1262C35.3622 37.0463 35.6804 36.9161 35.9736 36.7402C37.2026 36.0142 38.293 35.0757 39.194 33.9686L39.1941 33.9696Z" fill="#978967"></path>
  <path d="M53.6855 22.7213C54.3293 23.5983 58.0246 28.0726 58.0246 28.0726L64.672 35.6353C64.672 35.6353 64.8899 35.8515 65.4316 36.4512C65.5648 36.5934 66.1705 36.9427 66.2654 37.0213C66.4716 37.192 66.3132 37.3197 66.3132 37.3197L57.5625 37.511C57.5625 37.511 56.8996 37.6049 57.408 37.2765C57.5737 37.1601 57.7193 37.0173 57.8389 36.8539C58.0553 36.53 58.1851 36.1561 58.216 35.7678C58.2468 35.3795 58.1776 34.9898 58.015 34.6358C54.9982 30.4998 51.7111 26.5679 48.1751 22.8658C47.44 22.0926 46.5726 21.4572 45.6137 20.9896C45.2419 20.8029 45.0087 20.4112 45.1366 20.4066L45.5921 20.3902L53.3286 20.1744C53.3286 20.1744 53.6671 20.1852 53.8489 20.1786C54.068 20.1777 53.7737 20.3674 53.6294 20.6657C53.5079 20.9135 53.4309 21.1807 53.4018 21.4551C53.363 21.6744 53.3681 21.8993 53.4168 22.1166C53.4655 22.3339 53.5569 22.5395 53.6855 22.7213V22.7213ZM54.2841 28.7015C54.7454 29.1154 55.1641 29.5745 55.5339 30.0719L52.1717 34.1762C51.8393 34.5301 51.6279 34.9805 51.5681 35.4624C51.5084 35.9442 51.6033 36.4326 51.8392 36.857C51.9048 36.9876 51.9826 37.1118 52.0716 37.2277C52.1508 37.3385 52.2468 37.4363 52.3561 37.5176C52.5157 37.6439 52.7381 37.7359 52.6029 37.7868C50.4372 37.7568 48.3257 37.9559 45.9655 38.08L45.992 36.8436C47.3589 36.5665 48.5703 35.7824 49.3829 34.6488L54.2841 28.7015ZM65.6892 19.782C65.7627 19.7813 65.8362 19.7867 65.9088 19.7981C65.9556 19.8194 65.83 19.8859 65.7851 19.9186C65.0135 20.5465 64.2043 21.1589 63.4423 21.8035C62.9986 22.1756 62.5741 22.554 62.1775 22.9554C61.9045 23.2353 61.7399 23.4973 61.4331 23.8405L57.2175 28.9939C56.6385 28.6003 56.1428 28.0964 55.7587 27.511L58.8416 23.5988C59.107 23.2668 59.3043 22.8858 59.4224 22.4775C59.5248 22.0907 59.5597 21.6891 59.5257 21.2905C59.4851 21.0311 59.4087 20.7787 59.2986 20.5404C59.248 20.4251 59.1891 20.3136 59.1225 20.2067C58.9899 20.0234 58.7823 19.8148 58.8822 19.8112C59.2748 19.7971 59.5668 19.7945 59.5668 19.7945L64.4425 19.7739L65.6892 19.782Z" fill="#978967"></path>
  <path fill-rule="evenodd" clip-rule="evenodd" d="M67.58 14.797L72.231 12.523L72.204 19.891L76.2209 19.929C76.2209 19.929 76.37 21.547 74.906 21.557C73.442 21.567 72.1189 21.536 72.1189 21.536L71.9409 32.886C71.9384 33.1744 71.9582 33.4626 72 33.748C72.021 34.0575 72.1014 34.36 72.2369 34.639C72.3442 34.8266 72.493 34.9872 72.6719 35.1085C72.8507 35.2298 73.0549 35.3087 73.2689 35.339C73.7412 35.4427 74.2303 35.4442 74.7032 35.3433C75.1762 35.2424 75.6221 35.0414 76.011 34.754C76.05 34.733 76.183 34.824 76.158 35.042C76.0688 35.6405 75.8012 36.1981 75.39 36.642C74.508 37.5113 73.328 38.0119 72.09 38.042C68.39 38.081 67.1639 35.925 67.1449 33.378C67.1259 30.831 67.58 14.797 67.58 14.797Z" fill="#978967"></path>
  <path d="M87.9275 20.2905C89.8785 20.4136 91.7205 21.2328 93.1186 22.5991C94.2828 23.8605 95.7081 26.5896 95.4218 28.898C95.3776 29.2148 95.2274 29.5072 94.9958 29.7278C94.7641 29.9483 94.4647 30.084 94.1461 30.1127L81.4048 29.5734L81.9492 27.6848L90.2934 28.0738C90.4731 28.0806 90.6527 28.0583 90.8253 28.0078C90.9386 27.9205 91.0145 27.7934 91.0376 27.6523C91.0822 27.3662 91.1093 27.0776 91.1186 26.7881C91.1173 26.2798 91.0703 25.7727 90.9781 25.2729C90.8255 24.4748 90.4542 23.7348 89.9055 23.1355C89.2898 22.5406 88.4821 22.1848 87.6276 22.1318C87.0405 22.0447 86.4416 22.0828 85.8703 22.2437C85.2989 22.4046 84.7682 22.6847 84.3128 23.0655C83.5368 23.8058 82.9542 24.7251 82.616 25.7429C82.343 26.553 82.1874 27.3979 82.1538 28.2521C82.2209 28.6325 82.2442 29.0193 82.2234 29.4049C82.0338 30.6536 82.1782 31.9303 82.642 33.1051C82.8899 33.9731 83.4191 34.7342 84.1464 35.2689C84.939 35.8513 85.8762 36.2051 86.856 36.2918C88.0024 36.433 89.1659 36.2945 90.2471 35.8883C90.7351 35.7259 91.1968 35.4934 91.6179 35.1981C92.1555 34.7402 92.6485 34.2323 93.0902 33.6814C93.0902 33.6814 93.378 33.294 93.8181 32.8148C94.0852 32.5215 94.8086 33.7625 94.398 34.4338C94.2183 34.7379 93.973 35.0751 93.973 35.0751C93.4118 35.8413 92.7483 36.5269 92.001 37.113C91.1989 37.6962 90.2914 38.1184 89.3287 38.356C88.1765 38.636 86.9813 38.6929 85.8077 38.5238C83.9754 38.2879 82.2154 37.6605 80.647 36.6843C79.4395 35.9105 78.4839 34.8014 77.8971 33.4928C77.2897 32.1402 76.9761 30.6742 76.9769 29.1916C77.114 27.0496 77.9318 25.0074 79.3112 23.3629C80.3543 22.1989 81.6673 21.3088 83.1348 20.771C84.678 20.2623 86.314 20.0982 87.9275 20.2905V20.2905Z" fill="#978967"></path>
  <path fill-rule="evenodd" clip-rule="evenodd" d="M108.418 25.289C108.418 25.289 106.824 28.008 109.218 28.994C109.708 29.2374 110.267 29.3068 110.802 29.1906C111.337 29.0745 111.817 28.7798 112.162 28.355C112.628 27.6332 112.865 26.7869 112.839 25.928C112.852 24.821 111.567 22.857 108.569 23.555C106.739 24.1139 105.141 25.2546 104.018 26.804C103.973 26.744 103.893 26.67 104.101 26.183C104.325 25.658 105.06 22.061 101.594 22.036C98.128 22.011 99.1111 21.997 99.1111 21.997C99.1111 21.997 98.632 22.008 99.177 22.518C99.558 22.873 99.8311 22.839 99.7271 25.291C99.6821 26.361 99.2401 28.932 98.9151 30.891C98.5391 33.153 98.2781 34.579 98.2781 34.579C97.8296 36.0531 97.2082 37.4689 96.427 38.797C95.97 39.318 96.699 39.276 96.918 39.297C98.8 39.459 100.526 39.642 102.124 39.923C102.124 39.923 102.724 40.052 102.438 39.662C102.174 38.5877 102.106 37.4745 102.238 36.376C102.592 34.0057 103.185 31.6775 104.009 29.427C104.963 27.9414 106.184 26.645 107.609 25.603C107.848 25.4317 108.126 25.3236 108.418 25.289V25.289Z" fill="#978967"></path>
  <path fill-rule="evenodd" clip-rule="evenodd" d="M123.957 28.129C123.993 28.2087 124.005 28.2973 123.991 28.3837C123.976 28.47 123.937 28.5502 123.877 28.614C123.714 28.7418 123.569 28.8904 123.445 29.056C123.241 29.4231 123.185 29.8545 123.289 30.2615C123.394 30.6684 123.65 31.02 124.005 31.244C124.294 31.4558 124.624 31.6056 124.974 31.684C125.339 31.7615 125.713 31.795 126.086 31.784C127.449 31.714 129.026 30.207 128.105 28.617C126.449 25.757 123.813 25.031 120.698 25.091C119.926 25.0846 119.156 25.1354 118.392 25.243C117.786 25.3644 117.194 25.5432 116.622 25.777C116.038 26.0143 115.498 26.3465 115.022 26.76C114.749 27.012 114.51 27.2988 114.311 27.613C113.972 28.1395 113.76 28.738 113.693 29.3607C113.626 29.9835 113.705 30.6133 113.924 31.2C114.29 31.9143 114.812 32.5375 115.45 33.024C117.409 34.914 121.24 35.789 122.189 38.63C122.308 39.0568 122.334 39.5043 122.265 39.942C122.205 40.2156 122.088 40.4736 121.922 40.6993C121.757 40.925 121.545 41.1133 121.302 41.252C120.864 41.4212 120.409 41.5422 119.945 41.613C119.364 41.6754 118.777 41.6807 118.195 41.629C117.28 41.5851 116.407 41.2294 115.722 40.621C114.931 39.847 115.697 39.331 115.88 38.63C116.021 38.1236 115.988 37.5843 115.786 37.099C115.551 36.6791 115.216 36.324 114.81 36.066C114.28 35.7122 113.646 35.551 113.011 35.6092C112.377 35.6675 111.782 35.9417 111.326 36.386C111.088 36.7184 110.913 37.0911 110.808 37.486C110.691 38.3412 110.879 39.2101 111.34 39.94C112.03 40.7022 112.856 41.3304 113.774 41.793C116.373 43.2609 119.41 43.7547 122.341 43.186C123.324 42.9427 124.258 42.531 125.101 41.969C125.506 41.6743 125.857 41.3112 126.137 40.896C126.784 39.9918 127.132 38.9078 127.131 37.796C127.066 37.0569 126.842 36.3406 126.474 35.696C126 34.9815 125.402 34.3571 124.709 33.852C123.969 33.337 122.995 32.816 122.245 32.376C121.533 31.959 120.829 31.55 120.13 31.111C119.645 30.8815 119.215 30.552 118.867 30.1442C118.519 29.7364 118.261 29.2596 118.11 28.745C118.066 28.3729 118.145 27.9966 118.335 27.674C118.526 27.3514 118.818 27.1005 119.165 26.96C120.444 26.393 123.39 26.475 123.957 28.129Z" fill="#978967"></path>
  </svg>